<?xml version="1.0" standalone="no"?>
<!DOCTYPE svg PUBLIC "-//W3C//DTD SVG 20010904//EN"
 "http://www.w3.org/TR/2001/REC-SVG-20010904/DTD/svg10.dtd">
<svg version="1.0" xmlns="http://www.w3.org/2000/svg"
 width="39.000000pt" height="39.000000pt" viewBox="0 0 39.000000 39.000000"
 preserveAspectRatio="xMidYMid meet">
<metadata>
Created by potrace 1.10, written by Peter Selinger 2001-2011
</metadata>
<g transform="translate(0.000000,39.000000) scale(0.100000,-0.100000)"
fill="#000000" stroke="none">
<path d="M26 373 c-3 -10 -11 -26 -18 -36 -12 -17 -6 -26 55 -81 37 -34 67
-67 67 -73 0 -6 -20 -27 -45 -47 -24 -20 -54 -50 -66 -67 -20 -29 -20 -31 -4
-50 10 -10 23 -19 30 -19 7 0 40 29 73 65 36 37 67 62 75 59 7 -2 30 -25 51
-50 20 -24 48 -51 60 -60 21 -13 26 -13 55 3 27 16 45 47 22 41 -9 -3 -141
118 -141 129 0 12 127 123 139 123 6 0 11 9 11 20 0 14 -7 20 -21 20 -12 0
-23 8 -26 20 -5 20 -23 28 -23 11 0 -9 -123 -133 -134 -135 -9 -1 -136 124
-136 135 0 16 -18 9 -24 -8z"/>
</g>
</svg>
