<?xml version="1.0" encoding="UTF-8" standalone="no"?>
<!-- Created with Inkscape (http://www.inkscape.org/) -->

<svg
   xmlns:dc="http://purl.org/dc/elements/1.1/"
   xmlns:cc="http://creativecommons.org/ns#"
   xmlns:rdf="http://www.w3.org/1999/02/22-rdf-syntax-ns#"
   xmlns:svg="http://www.w3.org/2000/svg"
   xmlns="http://www.w3.org/2000/svg"
   xmlns:sodipodi="http://sodipodi.sourceforge.net/DTD/sodipodi-0.dtd"
   xmlns:inkscape="http://www.inkscape.org/namespaces/inkscape"
   version="1.1"
   id="svg42"
   width="36"
   height="26.666668"
   viewBox="0 0 36 26.666668"
   sodipodi:docname="folder.svg"
   inkscape:version="0.92.1 r15371">
  <metadata
     id="metadata48">
    <rdf:RDF>
      <cc:Work
         rdf:about="">
        <dc:format>image/svg+xml</dc:format>
        <dc:type
           rdf:resource="http://purl.org/dc/dcmitype/StillImage" />
        <dc:title></dc:title>
      </cc:Work>
    </rdf:RDF>
  </metadata>
  <defs
     id="defs46" />
  <sodipodi:namedview
     pagecolor="#ffffff"
     bordercolor="#666666"
     borderopacity="1"
     objecttolerance="10"
     gridtolerance="10"
     guidetolerance="10"
     inkscape:pageopacity="0"
     inkscape:pageshadow="2"
     inkscape:window-width="640"
     inkscape:window-height="480"
     id="namedview44"
     showgrid="false"
     inkscape:zoom="8.8499996"
     inkscape:cx="18"
     inkscape:cy="13.333334"
     inkscape:window-x="0"
     inkscape:window-y="0"
     inkscape:window-maximized="0"
     inkscape:current-layer="svg42" />
  <path
     style="fill:#000000;stroke-width:1.33333337"
     d="m 0.51425114,23.650965 c -0.416291,-1.658636 -0.577722,-7.508636 -0.358736,-13 l 0.398157,-9.98429827 6.43793816,-0.4106604 c 5.5140327,-0.3517268 6.5384827,-0.026181 7.1385437,2.26845877 0.568149,2.1726053 1.997831,2.7544042 7.562062,3.077327 6.379028,0.37021 6.89112,0.656011 7.283352,4.064875 l 0.421897,3.6666669 h -9.827007 c -9.6498954,0 -9.9098215,0.09011 -14.4218967,5 L 0.55367214,23.333335 5.2838152,19.000001 c 4.6567784,-4.266123 4.9307898,-4.333334 17.6666658,-4.333334 7.115088,0 12.93132,0.45 12.924959,1 -0.0064,0.55 -2.144148,3.250001 -4.750638,6.000001 l -4.739073,5 H 13.828438 c -11.9297663,0 -12.595118,-0.150704 -13.31418686,-3.015703 z"
     id="path70"
     inkscape:connector-curvature="0" />
</svg>
