<?xml version="1.0" standalone="no"?>
<!DOCTYPE svg PUBLIC "-//W3C//DTD SVG 20010904//EN"
 "http://www.w3.org/TR/2001/REC-SVG-20010904/DTD/svg10.dtd">
<svg version="1.0" xmlns="http://www.w3.org/2000/svg"
 width="16.000000pt" height="16.000000pt" viewBox="0 0 16.000000 16.000000"
 preserveAspectRatio="xMidYMid meet">
<metadata>
Created by potrace 1.10, written by Peter Selinger 2001-2011
</metadata>
<g transform="translate(0.000000,16.000000) scale(0.100000,-0.100000)"
fill="#000000" stroke="none">
<path d="M42 150 c-42 -17 -51 -80 -18 -125 21 -29 31 -12 11 19 -32 49 6 105
61 92 30 -8 49 -46 40 -81 -6 -22 -9 -25 -21 -15 -13 10 -15 8 -15 -14 0 -21
5 -26 26 -26 14 0 23 4 20 9 -3 4 0 22 6 38 15 39 -5 91 -39 104 -29 11 -41
11 -71 -1z"/>
</g>
</svg>
