<?xml version="1.0" encoding="utf-8"?><svg xmlns="http://www.w3.org/2000/svg" xmlns:xlink="http://www.w3.org/1999/xlink"><symbol viewBox="0 0 48.000000 48.000000" id="again2" xmlns="http://www.w3.org/2000/svg"><path d="M17 1.5c0 .8-1.2 1.8-2.7 2.1C3.5 6.1-2.8 19.6 1.1 31.9c1.7 5.3 1.7 5.3 3.9 8.6 1.1 1.6 2.3 3.6 2.6 4.3.8 1.5 3.6 1.6 5.2 0 1.4-1.4 1.6-4.8.3-4.8-.5 0-2.5-2.4-4.5-5.4C5.8 30.3 5 28.2 5 24.5 5 15.3 13.7 7 23.3 7 31.9 7 41 16.6 41 25.7c0 4.7-3.3 13.3-5.1 13.3-.6 0-2-1.1-3.3-2.5-1.3-1.4-2.6-2.5-3-2.5-.3 0-.6 3.1-.6 7v7h15.4l-2.2-2c-2.7-2.5-2.7-3.1-.2-6 1.1-1.3 2-3.1 2-4.1 0-1.1.9-2.4 2-3.1 1.7-1.1 2-2.4 2-7.5 0-5-.3-6.3-1.5-6.3-.9 0-1.8-1.3-2.2-3.1C43.6 12 36.1 4 33.3 4c-2.2 0-4.7-2.3-3.6-3.3.3-.4-2.4-.7-6-.7-5.3 0-6.7.3-6.7 1.5z"/></symbol><symbol viewBox="0 0 45.333332 37.333332" id="brush" xmlns="http://www.w3.org/2000/svg"><path d="M2.295 34.943C1.331 33.78.289 29.334-.02 25.06c-.449-6.207.02-8.804 2.327-12.911C11.55-4.297 34.418-3.647 43.187 13.31c2.527 4.887 2.09 18.262-.706 21.632-2.59 3.121-37.595 3.121-40.186 0zm22.286-3.534c.56-.906 1.127-5.556 1.26-10.334l.241-8.687-1.862 5.245c-1.024 2.885-2.755 6.232-3.847 7.438-2.403 2.656-2.5 4.268-.385 6.384 2.037 2.037 3.314 2.024 4.593-.046zm-16.193-7.78c0-1.03-1.05-2.073-2.333-2.32-2.299-.443-3.249 2.386-1.417 4.218 1.398 1.398 3.75.207 3.75-1.898zm32.431-.351c.25-1.287-.42-2.223-1.588-2.223-2.477 0-3.972 2.173-2.8 4.07 1.207 1.952 3.869.83 4.388-1.847zM12.801 12.055c-.541-2.81-2.908-2.634-3.51.263-.252 1.208.483 2.07 1.764 2.07 1.373 0 2.027-.874 1.746-2.333zm22.667 0c-.542-2.81-2.908-2.634-3.511.263-.252 1.208.483 2.07 1.764 2.07 1.374 0 2.028-.874 1.747-2.333zm-10.413-5c0-1.111-1.185-2-2.667-2-1.481 0-2.667.889-2.667 2 0 1.11 1.186 2 2.667 2 1.482 0 2.667-.89 2.667-2z"/></symbol><symbol viewBox="0 0 39.000000 39.000000" id="chest" xmlns="http://www.w3.org/2000/svg"><path d="M2.6 1.7c-.3 1-1.1 2.6-1.8 3.6C-.4 7 .2 7.9 6.3 13.4c3.7 3.4 6.7 6.7 6.7 7.3 0 .6-2 2.7-4.5 4.7-2.4 2-5.4 5-6.6 6.7-2 2.9-2 3.1-.4 5 1 1 2.3 1.9 3 1.9.7 0 4-2.9 7.3-6.5 3.6-3.7 6.7-6.2 7.5-5.9.7.2 3 2.5 5.1 5 2 2.4 4.8 5.1 6 6 2.1 1.3 2.6 1.3 5.5-.3 2.7-1.6 4.5-4.7 2.2-4.1-.9.3-14.1-11.8-14.1-12.9C24 19.1 36.7 8 37.9 8c.6 0 1.1-.9 1.1-2 0-1.4-.7-2-2.1-2-1.2 0-2.3-.8-2.6-2C33.8 0 32-.8 32 .9c0 .9-12.3 13.3-13.4 13.5C17.7 14.5 5 2 5 .9c0-1.6-1.8-.9-2.4.8z"/></symbol><symbol viewBox="0 0 606.191 606.191" id="close_nav" xmlns="http://www.w3.org/2000/svg"><path d="M22.158 415.072c10.465 9.775 24.11 15.156 38.422 15.156 14.886 0 28.922-5.836 39.521-16.436l68.75-68.75c23.129-23.129 23.129-60.764 0-83.894l-68.75-68.75C89.502 181.8 75.466 175.963 60.58 175.963c-14.312 0-27.958 5.383-38.422 15.156a55.384 55.384 0 0 0-12.89 18.091c-3.191 7.186-4.809 14.858-4.809 22.804v142.163c0 7.947 1.618 15.619 4.81 22.807a55.369 55.369 0 0 0 12.889 18.088zm25.141-183.057c0-7.948 6.502-13.211 13.28-13.211 3.239 0 6.542 1.202 9.228 3.888l68.75 68.75c6.437 6.437 6.437 16.873 0 23.308l-68.75 68.75c-2.687 2.688-5.988 3.889-9.228 3.889-6.778 0-13.28-5.264-13.28-13.211V232.015z"/><path d="M60.58 430.729c-14.44 0-28.207-5.431-38.763-15.291a55.894 55.894 0 0 1-13.005-18.25c-3.22-7.252-4.853-14.993-4.853-23.01V232.015c0-8.016 1.632-15.757 4.852-23.007a55.866 55.866 0 0 1 13.005-18.253c10.558-9.861 24.325-15.291 38.764-15.291 15.02 0 29.181 5.889 39.874 16.583l68.75 68.75c23.324 23.325 23.324 61.277 0 84.601l-68.75 68.75c-10.692 10.692-24.853 16.581-39.874 16.581zm0-254.266c-14.185 0-27.709 5.335-38.081 15.021a54.882 54.882 0 0 0-12.774 17.929c-3.163 7.122-4.766 14.726-4.766 22.601v142.163c0 7.876 1.604 15.48 4.767 22.604a54.896 54.896 0 0 0 12.773 17.926c10.371 9.687 23.895 15.021 38.081 15.021 14.754 0 28.664-5.785 39.167-16.289l68.75-68.75c22.934-22.935 22.934-60.252 0-83.187l-68.75-68.75c-10.504-10.504-24.414-16.289-39.167-16.289zm0 211.426c-8.626 0-13.78-6.972-13.78-13.711V232.015c0-6.74 5.154-13.711 13.78-13.711 3.577 0 6.98 1.433 9.581 4.035l68.75 68.75a16.87 16.87 0 0 1 4.974 12.008c0 4.536-1.766 8.8-4.974 12.007l-68.75 68.75c-2.6 2.602-6.003 4.035-9.581 4.035zm0-168.586c-6.282 0-12.78 4.755-12.78 12.711v142.163c0 7.956 6.498 12.711 12.78 12.711 3.358 0 6.427-1.294 8.875-3.742l68.75-68.75a15.874 15.874 0 0 0 4.681-11.3c0-4.269-1.662-8.283-4.681-11.301l-68.75-68.75c-2.449-2.448-5.517-3.742-8.875-3.742zM601.732 58.64C601.732 26.581 575.65.5 543.591.5h-263.69c-32.058 0-58.14 26.082-58.14 58.14v64.75c0 32.059 26.082 58.14 58.14 58.14h263.69c32.059 0 58.141-26.082 58.141-58.14V58.64zm-42.839 64.75c0 8.45-6.852 15.3-15.301 15.3h-263.69c-8.45 0-15.3-6.85-15.3-15.3V58.64c0-8.45 6.85-15.3 15.3-15.3h263.69c8.449 0 15.301 6.85 15.301 15.3v64.75z"/><path d="M543.592 182.03h-263.69c-32.334 0-58.64-26.306-58.64-58.64V58.64c0-32.334 26.306-58.64 58.64-58.64h263.69c32.335 0 58.641 26.306 58.641 58.64v64.75c-.001 32.335-26.306 58.64-58.641 58.64zM279.902 1c-31.783 0-57.64 25.857-57.64 57.64v64.75c0 31.783 25.857 57.64 57.64 57.64h263.69c31.783 0 57.641-25.857 57.641-57.64V58.64c0-31.783-25.857-57.64-57.641-57.64h-263.69zm263.69 138.19h-263.69c-8.712 0-15.8-7.088-15.8-15.8V58.64c0-8.712 7.088-15.8 15.8-15.8h263.69c8.713 0 15.801 7.088 15.801 15.8v64.75c0 8.713-7.088 15.8-15.801 15.8zm-263.69-95.35c-8.161 0-14.8 6.639-14.8 14.8v64.75c0 8.161 6.639 14.8 14.8 14.8h263.69c8.161 0 14.801-6.639 14.801-14.8V58.64c0-8.161-6.64-14.8-14.801-14.8h-263.69zm321.83 226.881c0-32.058-26.082-58.14-58.141-58.14h-263.69c-32.058 0-58.14 26.082-58.14 58.14v64.75c0 32.059 26.082 58.141 58.14 58.141h263.69c32.059 0 58.141-26.082 58.141-58.141v-64.75zm-42.839 64.75c0 8.449-6.852 15.301-15.301 15.301h-263.69c-8.45 0-15.3-6.852-15.3-15.301v-64.75c0-8.45 6.85-15.3 15.3-15.3h263.69c8.449 0 15.301 6.85 15.301 15.3v64.75z"/><path d="M543.592 394.111h-263.69c-32.334 0-58.64-26.306-58.64-58.641v-64.75c0-32.334 26.306-58.64 58.64-58.64h263.69c32.335 0 58.641 26.306 58.641 58.64v64.75c-.001 32.336-26.306 58.641-58.641 58.641zm-263.69-181.029c-31.783 0-57.64 25.857-57.64 57.64v64.75c0 31.783 25.857 57.641 57.64 57.641h263.69c31.783 0 57.641-25.857 57.641-57.641v-64.75c0-31.783-25.857-57.64-57.641-57.64h-263.69zm263.69 138.189h-263.69c-8.712 0-15.8-7.088-15.8-15.801v-64.75c0-8.712 7.088-15.8 15.8-15.8h263.69c8.713 0 15.801 7.088 15.801 15.8v64.75c0 8.714-7.088 15.801-15.801 15.801zm-263.69-95.35c-8.161 0-14.8 6.639-14.8 14.8v64.75c0 8.161 6.639 14.801 14.8 14.801h263.69c8.161 0 14.801-6.64 14.801-14.801v-64.75c0-8.161-6.64-14.8-14.801-14.8h-263.69zm321.83 291.632v-64.75c0-32.059-26.082-58.141-58.141-58.141h-263.69c-32.058 0-58.14 26.082-58.14 58.141v64.75c0 32.059 26.082 58.139 58.14 58.139h263.69c32.059-.001 58.141-26.081 58.141-58.139zm-42.839 0c0 8.449-6.852 15.299-15.301 15.299h-263.69c-8.45 0-15.3-6.85-15.3-15.299v-64.75c0-8.451 6.85-15.301 15.3-15.301h263.69c8.449 0 15.301 6.85 15.301 15.301v64.75z"/><path d="M543.592 606.191h-263.69c-32.334 0-58.64-26.306-58.64-58.639v-64.75c0-32.335 26.306-58.641 58.64-58.641h263.69c32.335 0 58.641 26.306 58.641 58.641v64.75c-.001 32.334-26.306 58.639-58.641 58.639zm-263.69-181.029c-31.783 0-57.64 25.857-57.64 57.641v64.75c0 31.782 25.857 57.639 57.64 57.639h263.69c31.783 0 57.641-25.856 57.641-57.639v-64.75c0-31.783-25.857-57.641-57.641-57.641h-263.69zm263.69 138.19h-263.69c-8.712 0-15.8-7.087-15.8-15.799v-64.75c0-8.713 7.088-15.801 15.8-15.801h263.69c8.713 0 15.801 7.088 15.801 15.801v64.75c0 8.712-7.088 15.799-15.801 15.799zm-263.69-95.35c-8.161 0-14.8 6.64-14.8 14.801v64.75c0 8.16 6.639 14.799 14.8 14.799h263.69c8.161 0 14.801-6.639 14.801-14.799v-64.75c0-8.161-6.64-14.801-14.801-14.801h-263.69z"/></symbol><symbol viewBox="0 0 36 26.666668" id="folder" xmlns="http://www.w3.org/2000/svg"><path d="M.514 23.651c-.416-1.659-.577-7.509-.358-13L.554.667 6.992.256C12.506-.096 13.53.23 14.13 2.524c.568 2.173 1.998 2.755 7.562 3.078 6.38.37 6.891.656 7.284 4.065l.421 3.666H19.57c-9.65 0-9.91.09-14.421 5l-4.595 5L5.284 19c4.657-4.266 4.93-4.333 17.666-4.333 7.116 0 12.932.45 12.925 1-.006.55-2.144 3.25-4.75 6l-4.74 5H13.829c-11.93 0-12.595-.151-13.314-3.016z"/></symbol><symbol viewBox="0 0 32 32" id="icon" xmlns="http://www.w3.org/2000/svg"><circle cx="2" cy="4" r="2"/><path d="M8 2h24v4H8z"/><circle cx="10" cy="12" r="2"/><path d="M16 10h16v4H16z"/><circle cx="10" cy="28" r="2"/><path d="M16 26h16v4H16z"/><circle cx="18" cy="20" r="2"/><path d="M24 18h8v4h-8z"/></symbol><symbol viewBox="0 0 36 32" id="layout" xmlns="http://www.w3.org/2000/svg"><path d="M12.06 29.659c0-1.31-1.809-2.054-5.667-2.334l-5.667-.41V.25h34.667v26.666l-5.667.41c-3.858.28-5.666 1.024-5.666 2.334 0 1.39-1.662 1.923-6 1.923s-6-.533-6-1.923zm21.333-18.744V3.582H2.726V18.25h30.667z"/></symbol><symbol viewBox="0 0 492.57 492.57" id="message" xmlns="http://www.w3.org/2000/svg"><path d="M349.414 189.257c-8.168 27.009-27.28 51.549-55.483 70.47l-5.11 40.051c-1.607 12.533-10.019 22.963-22.185 27.276a33.304 33.304 0 0 1-10.831 1.801c-8.807 0-17.104-3.408-23.299-9.504l-26.846-26.262c-13.379 2.102-27.094 3.151-40.912 3.151-.465 0-.896-.044-1.356-.044-.093 1.494-.336 2.943-.336 4.457 0 34.396 22.694 65.166 58.367 85.787l6.576 51.536c.43 3.344 2.692 6.13 5.877 7.262a8.858 8.858 0 0 0 9.079-2.053l35.895-35.118c15.462 3.266 31.933 5.031 48.972 5.031 90.979 0 164.748-50.352 164.748-112.445 0-57.111-62.394-104.169-143.156-111.396zm-21.592 133.101c-12.027 0-21.754-9.712-21.754-21.739 0-11.989 9.727-21.722 21.754-21.722 12.009 0 21.706 9.732 21.706 21.722 0 12.027-9.697 21.739-21.706 21.739zm62.618 0c-12.023 0-21.739-9.712-21.739-21.739 0-11.989 9.716-21.722 21.739-21.722 11.989 0 21.735 9.732 21.735 21.722.001 12.027-9.745 21.739-21.735 21.739z"/><path d="M213.715 266.747l35.896 35.113a8.8 8.8 0 0 0 6.194 2.533c.975 0 1.945-.158 2.885-.475 3.187-1.133 5.447-3.919 5.877-7.264l6.576-51.534c35.672-20.622 58.367-51.392 58.367-85.789 0-62.127-73.769-112.48-164.762-112.48C73.766 46.852 0 97.205 0 159.332c0 62.089 73.766 112.446 164.748 112.446 17.04 0 33.506-1.765 48.967-5.031zm13.651-129.169c12.023 0 21.749 9.727 21.749 21.72 0 12.023-9.727 21.74-21.749 21.74-12.01 0-21.726-9.717-21.726-21.74.001-11.993 9.716-21.72 21.726-21.72zm-125.241 43.46c-11.988 0-21.735-9.717-21.735-21.74 0-11.993 9.747-21.72 21.735-21.72 12.028 0 21.74 9.727 21.74 21.72 0 12.023-9.712 21.74-21.74 21.74zm40.912-21.74c0-11.993 9.703-21.72 21.711-21.72 12.022 0 21.75 9.727 21.75 21.72 0 12.023-9.728 21.74-21.75 21.74-12.008 0-21.711-9.717-21.711-21.74z"/></symbol><symbol viewBox="0 0 45.000000 27.000000" id="ok" xmlns="http://www.w3.org/2000/svg"><path d="M1.1 3.1c-1.3 3-1.2 3.2 3 7.6C12.9 19.9 20.5 27 21.6 27c.6 0 5.6-4.5 11.1-10S43.2 7 43.9 7c.6 0 1.1-.7 1.1-1.5S44.3 4 43.4 4c-.9 0-1.8-.9-2.1-2C40.7-.2 38-.8 38 1.3 38 2.3 22.5 19 21.6 19 20.6 19 5 2.3 5 1.3 5-1.2 2.5 0 1.1 3.1z"/></symbol><symbol viewBox="0 0 606.191 606.191" id="open_nav" xmlns="http://www.w3.org/2000/svg"><path d="M90.571 413.793c10.599 10.6 24.634 16.436 39.521 16.436 14.312 0 27.957-5.381 38.422-15.156a55.401 55.401 0 0 0 12.89-18.088c3.191-7.188 4.81-14.859 4.81-22.807V232.015c0-7.947-1.618-15.619-4.809-22.805a55.381 55.381 0 0 0-12.889-18.091c-10.465-9.773-24.11-15.157-38.423-15.157-14.886 0-28.922 5.837-39.521 16.436l-68.75 68.751c-23.129 23.129-23.129 60.764 0 83.893l68.749 68.751zM52.113 291.442l68.75-68.75c2.686-2.686 5.988-3.888 9.228-3.888 6.778 0 13.28 5.264 13.28 13.211v142.163c0 7.947-6.502 13.211-13.28 13.211-3.24 0-6.542-1.201-9.228-3.889l-68.75-68.75c-6.436-6.436-6.436-16.872 0-23.308z"/><path d="M130.091 430.729c-15.021 0-29.182-5.889-39.874-16.582l-68.75-68.75c-11.281-11.28-17.494-26.303-17.494-42.3s6.213-31.02 17.494-42.3l68.75-68.751c10.693-10.693 24.854-16.583 39.874-16.583 14.438 0 28.205 5.431 38.764 15.292a55.874 55.874 0 0 1 13.004 18.253c3.22 7.251 4.852 14.992 4.852 23.008v142.163c0 8.017-1.633 15.758-4.853 23.01a55.882 55.882 0 0 1-13.005 18.25c-10.554 9.859-24.321 15.29-38.762 15.29zm.001-254.267c-14.753 0-28.663 5.785-39.167 16.29l-68.75 68.751c-11.092 11.092-17.201 25.863-17.201 41.593 0 15.729 6.109 30.501 17.201 41.593l68.75 68.75c10.503 10.504 24.413 16.289 39.167 16.289 14.187 0 27.71-5.335 38.081-15.021a54.876 54.876 0 0 0 12.774-17.926c3.163-7.123 4.767-14.728 4.767-22.604V232.015c0-7.875-1.604-15.479-4.766-22.602a54.894 54.894 0 0 0-12.773-17.929c-10.375-9.687-23.899-15.022-38.083-15.022zm-.001 211.427c-3.578 0-6.98-1.433-9.581-4.035l-68.75-68.75a16.866 16.866 0 0 1-4.974-12.007 16.87 16.87 0 0 1 4.974-12.008l68.75-68.75c2.602-2.602 6.004-4.035 9.581-4.035 8.626 0 13.78 6.972 13.78 13.711v142.163c.001 6.739-5.154 13.711-13.78 13.711zm0-168.586c-3.357 0-6.426 1.294-8.874 3.742l-68.75 68.75a15.876 15.876 0 0 0-4.681 11.301c0 4.269 1.663 8.281 4.681 11.3l68.75 68.75c2.447 2.448 5.516 3.742 8.874 3.742 6.282 0 12.78-4.755 12.78-12.711V232.015c.001-7.957-6.497-12.712-12.78-12.712zM543.579.5H279.888c-32.059 0-58.14 26.082-58.14 58.14v64.75c0 32.059 26.082 58.14 58.14 58.14h263.689c32.059 0 58.141-26.082 58.141-58.14V58.64C601.72 26.582 575.638.5 543.579.5zm15.299 122.89c0 8.45-6.85 15.3-15.299 15.3H279.888c-8.45 0-15.3-6.85-15.3-15.3V58.64c0-8.45 6.85-15.3 15.3-15.3h263.689c8.451 0 15.301 6.85 15.301 15.3v64.75z"/><path d="M543.577 182.03H279.888c-32.334 0-58.64-26.306-58.64-58.64V58.64c0-32.334 26.306-58.64 58.64-58.64h263.691c15.639 0 30.357 6.106 41.445 17.194 11.089 11.088 17.194 25.808 17.193 41.446v64.75c.001 32.335-26.305 58.64-58.64 58.64zM279.888 1c-31.783 0-57.64 25.857-57.64 57.64v64.75c0 31.783 25.857 57.64 57.64 57.64h263.689c31.783 0 57.641-25.857 57.641-57.64V58.64c.001-15.371-6.001-29.839-16.9-40.738C573.419 7.002 558.95 1 543.579 1H279.888zm263.691 138.19H279.888c-8.712 0-15.8-7.088-15.8-15.8V58.64c0-8.712 7.088-15.8 15.8-15.8h263.689c8.713 0 15.801 7.088 15.801 15.8v64.75c0 8.713-7.087 15.8-15.799 15.8zM279.888 43.84c-8.161 0-14.8 6.639-14.8 14.8v64.75c0 8.161 6.639 14.8 14.8 14.8h263.691c8.16 0 14.799-6.639 14.799-14.8V58.64c0-8.161-6.64-14.8-14.801-14.8H279.888zm263.691 168.742H279.888c-32.059 0-58.14 26.082-58.14 58.14v64.75c0 32.059 26.082 58.141 58.14 58.141h263.689c32.059 0 58.141-26.082 58.141-58.141v-64.75c.002-32.059-26.08-58.14-58.139-58.14zm15.299 122.889c0 8.449-6.85 15.301-15.299 15.301H279.888c-8.45 0-15.3-6.852-15.3-15.301v-64.75c0-8.45 6.85-15.3 15.3-15.3h263.689c8.451 0 15.301 6.85 15.301 15.3v64.75z"/><path d="M543.577 394.111H279.888c-32.334 0-58.64-26.306-58.64-58.641v-64.75c0-32.334 26.306-58.64 58.64-58.64h263.691c15.639 0 30.357 6.106 41.445 17.194 11.089 11.088 17.194 25.807 17.193 41.445v64.75c.001 32.337-26.305 58.642-58.64 58.642zM279.888 213.082c-31.783 0-57.64 25.857-57.64 57.64v64.75c0 31.783 25.857 57.641 57.64 57.641h263.689c31.783 0 57.641-25.857 57.641-57.641v-64.75c.001-15.371-6.001-29.839-16.9-40.738-10.898-10.899-25.366-16.901-40.738-16.901H279.888zm263.691 138.189H279.888c-8.712 0-15.8-7.088-15.8-15.801v-64.75c0-8.712 7.088-15.8 15.8-15.8h263.689c8.713 0 15.801 7.088 15.801 15.8v64.75c0 8.714-7.087 15.801-15.799 15.801zm-263.691-95.35c-8.161 0-14.8 6.639-14.8 14.8v64.75c0 8.161 6.639 14.801 14.8 14.801h263.691c8.16 0 14.799-6.64 14.799-14.801v-64.75c0-8.161-6.64-14.8-14.801-14.8H279.888zm263.691 168.741H279.888c-32.059 0-58.14 26.082-58.14 58.141v64.75c0 32.059 26.082 58.139 58.14 58.139h263.689c32.059 0 58.141-26.08 58.141-58.139v-64.75c.002-32.059-26.08-58.141-58.139-58.141zm15.299 122.891c0 8.449-6.85 15.299-15.299 15.299H279.888c-8.45 0-15.3-6.85-15.3-15.299v-64.75c0-8.451 6.85-15.301 15.3-15.301h263.689c8.451 0 15.301 6.85 15.301 15.301v64.75z"/><path d="M543.577 606.191H279.888c-32.334 0-58.64-26.306-58.64-58.639v-64.75c0-32.335 26.306-58.641 58.64-58.641h263.691c15.639 0 30.357 6.106 41.445 17.194 11.089 11.089 17.194 25.808 17.193 41.446v64.75c.001 32.335-26.305 58.64-58.64 58.64zM279.888 425.162c-31.783 0-57.64 25.857-57.64 57.641v64.75c0 31.782 25.857 57.639 57.64 57.639h263.689c31.783 0 57.641-25.856 57.641-57.639v-64.75c.001-15.371-6.001-29.839-16.9-40.738-10.898-10.899-25.367-16.902-40.738-16.902H279.888zm263.691 138.19H279.888c-8.712 0-15.8-7.087-15.8-15.799v-64.75c0-8.713 7.088-15.801 15.8-15.801h263.689c8.713 0 15.801 7.088 15.801 15.801v64.75c0 8.712-7.087 15.799-15.799 15.799zm-263.691-95.35c-8.161 0-14.8 6.64-14.8 14.801v64.75c0 8.16 6.639 14.799 14.8 14.799h263.691c8.16 0 14.799-6.639 14.799-14.799v-64.75c0-8.161-6.64-14.801-14.801-14.801H279.888z"/></symbol><symbol viewBox="0 0 16.000000 16.000000" id="refresh" xmlns="http://www.w3.org/2000/svg"><path d="M4.2 1C0 2.7-.9 9 2.4 13.5c2.1 2.9 3.1 1.2 1.1-1.9-3.2-4.9.6-10.5 6.1-9.2 3 .8 4.9 4.6 4 8.1-.6 2.2-.9 2.5-2.1 1.5-1.3-1-1.5-.8-1.5 1.4 0 2.1.5 2.6 2.6 2.6 1.4 0 2.3-.4 2-.9-.3-.4 0-2.2.6-3.8 1.5-3.9-.5-9.1-3.9-10.4C8.4-.2 7.2-.2 4.2 1z"/></symbol></svg>