<?xml version="1.0" standalone="no"?>
<!DOCTYPE svg PUBLIC "-//W3C//DTD SVG 20010904//EN"
 "http://www.w3.org/TR/2001/REC-SVG-20010904/DTD/svg10.dtd">
<svg version="1.0" xmlns="http://www.w3.org/2000/svg"
 width="48.000000pt" height="48.000000pt" viewBox="0 0 48.000000 48.000000"
 preserveAspectRatio="xMidYMid meet">
<metadata>
Created by potrace 1.10, written by Peter Selinger 2001-2011
</metadata>
<g transform="translate(0.000000,48.000000) scale(0.100000,-0.100000)"
fill="#000000" stroke="none">
<path d="M170 465 c0 -8 -12 -18 -27 -21 -108 -25 -171 -160 -132 -283 17 -53
17 -53 39 -86 11 -16 23 -36 26 -43 8 -15 36 -16 52 0 14 14 16 48 3 48 -5 0
-25 24 -45 54 -28 43 -36 64 -36 101 0 92 87 175 183 175 86 0 177 -96 177
-187 0 -47 -33 -133 -51 -133 -6 0 -20 11 -33 25 -13 14 -26 25 -30 25 -3 0
-6 -31 -6 -70 l0 -70 77 0 77 0 -22 20 c-27 25 -27 31 -2 60 11 13 20 31 20
41 0 11 9 24 20 31 17 11 20 24 20 75 0 50 -3 63 -15 63 -9 0 -18 13 -22 31
-7 39 -82 119 -110 119 -22 0 -47 23 -36 33 3 4 -24 7 -60 7 -53 0 -67 -3 -67
-15z"/>
</g>
</svg>
