<?xml version="1.0" encoding="UTF-8" standalone="no"?>
<!-- Created with Inkscape (http://www.inkscape.org/) -->

<svg
   xmlns:dc="http://purl.org/dc/elements/1.1/"
   xmlns:cc="http://creativecommons.org/ns#"
   xmlns:rdf="http://www.w3.org/1999/02/22-rdf-syntax-ns#"
   xmlns:svg="http://www.w3.org/2000/svg"
   xmlns="http://www.w3.org/2000/svg"
   xmlns:sodipodi="http://sodipodi.sourceforge.net/DTD/sodipodi-0.dtd"
   xmlns:inkscape="http://www.inkscape.org/namespaces/inkscape"
   version="1.1"
   id="svg3680"
   width="45.333332"
   height="37.333332"
   viewBox="0 0 45.333332 37.333332"
   sodipodi:docname="brush.svg"
   inkscape:version="0.92.1 r15371">
  <metadata
     id="metadata3686">
    <rdf:RDF>
      <cc:Work
         rdf:about="">
        <dc:format>image/svg+xml</dc:format>
        <dc:type
           rdf:resource="http://purl.org/dc/dcmitype/StillImage" />
        <dc:title></dc:title>
      </cc:Work>
    </rdf:RDF>
  </metadata>
  <defs
     id="defs3684" />
  <sodipodi:namedview
     pagecolor="#ffffff"
     bordercolor="#666666"
     borderopacity="1"
     objecttolerance="10"
     gridtolerance="10"
     guidetolerance="10"
     inkscape:pageopacity="0"
     inkscape:pageshadow="2"
     inkscape:window-width="1366"
     inkscape:window-height="705"
     id="namedview3682"
     showgrid="false"
     inkscape:zoom="7.1785717"
     inkscape:cx="17.343489"
     inkscape:cy="16.51888"
     inkscape:window-x="-8"
     inkscape:window-y="-8"
     inkscape:window-maximized="1"
     inkscape:current-layer="svg3680" />
  <path
     style="fill:#000000;stroke-width:1.33333325"
     d="m 2.2949509,34.942535 c -0.964129,-1.161704 -2.00586496,-5.608543 -2.31496896,-9.881864 -0.448924,-6.206304 0.0193900002,-8.804122 2.32741696,-12.91071 9.2428861,-16.4454967 32.1110691,-15.7959137 40.8799421,1.161216 2.526869,4.886426 2.090215,18.261915 -0.706173,21.631358 -2.590972,3.12193 -37.5952451,3.12193 -40.1862171,0 z M 24.581367,31.408611 c 0.559545,-0.905363 1.126145,-5.555362 1.259112,-10.333333 l 0.241757,-8.687219 -1.862084,5.244915 c -1.024145,2.884702 -2.755334,6.231945 -3.847088,7.43832 -2.403065,2.655357 -2.500334,4.268101 -0.385005,6.38343 2.037205,2.037206 3.313667,2.024391 4.593308,-0.04611 z M 8.3880599,23.628541 c 0,-1.028847 -1.05,-2.072842 -2.333334,-2.319988 -2.298317,-0.442616 -3.248456,2.386604 -1.416666,4.218394 1.397609,1.397609 3.75,0.206731 3.75,-1.898406 z M 40.819157,23.27757 c 0.249425,-1.286097 -0.419777,-2.222845 -1.587977,-2.222845 -2.476982,0 -3.971943,2.173529 -2.799623,4.070381 1.206041,1.951417 3.868237,0.830416 4.3876,-1.847536 z M 12.800898,12.054726 C 12.259653,9.2442691 9.8933219,9.421481 9.2902939,12.317631 c -0.251522,1.207979 0.483463,2.070428 1.7644321,2.070428 1.373277,0 2.02724,-0.873862 1.746172,-2.333333 z m 22.666666,0 C 34.92632,9.2442691 32.559988,9.421481 31.95696,12.317631 c -0.251523,1.207979 0.483463,2.070428 1.764432,2.070428 1.373277,0 2.02724,-0.873862 1.746172,-2.333333 z M 25.054726,7.0547263 c 0,-1.111111 -1.185186,-1.9999999 -2.666667,-1.9999999 -1.481481,0 -2.666667,0.8888889 -2.666667,1.9999999 0,1.111111 1.185186,1.9999999 2.666667,1.9999999 1.481481,0 2.666667,-0.8888889 2.666667,-1.9999999 z"
     id="path3694"
     inkscape:connector-curvature="0" />
  <path
     style="fill:#000000;stroke-width:1.33333325"
     d=""
     id="path3690"
     inkscape:connector-curvature="0" />
</svg>
