<?xml version="1.0" standalone="no"?>
<!DOCTYPE svg PUBLIC "-//W3C//DTD SVG 20010904//EN"
 "http://www.w3.org/TR/2001/REC-SVG-20010904/DTD/svg10.dtd">
<svg version="1.0" xmlns="http://www.w3.org/2000/svg"
 width="45.000000pt" height="27.000000pt" viewBox="0 0 45.000000 27.000000"
 preserveAspectRatio="xMidYMid meet">
<metadata>
Created by potrace 1.10, written by Peter Selinger 2001-2011
</metadata>
<g transform="translate(0.000000,27.000000) scale(0.100000,-0.100000)"
fill="#000000" stroke="none">
<path d="M11 239 c-13 -30 -12 -32 30 -76 88 -92 164 -163 175 -163 6 0 56 45
111 100 55 55 105 100 112 100 6 0 11 7 11 15 0 8 -7 15 -16 15 -9 0 -18 9
-21 20 -6 22 -33 28 -33 7 0 -10 -155 -177 -164 -177 -10 0 -166 167 -166 177
0 25 -25 13 -39 -18z"/>
</g>
</svg>
